<?xml version="1.0" standalone="no"?>
<!DOCTYPE svg PUBLIC "-//W3C//DTD SVG 20010904//EN"
 "http://www.w3.org/TR/2001/REC-SVG-20010904/DTD/svg10.dtd">
<svg version="1.0" xmlns="http://www.w3.org/2000/svg"
 width="853.000000pt" height="320.000000pt" viewBox="0 0 853.000000 320.000000"
 preserveAspectRatio="xMidYMid meet">

<g transform="translate(0.000000,320.000000) scale(0.100000,-0.100000)"
fill="#000000" stroke="none">
<path d="M4316 2865 c-21 -7 -39 -15 -40 -17 -37 -49 -47 -108 -26 -149 14
-25 81 -59 117 -59 38 0 91 34 103 66 16 40 12 86 -10 121 -18 30 -28 35 -91
47 -9 2 -33 -2 -53 -9z"/>
<path d="M4619 2799 c-5 -3 -8 -192 -7 -475 l3 -469 100 0 100 0 3 468 c2 369
0 468 -10 472 -21 7 -179 11 -189 4z"/>
<path d="M5048 2802 l-88 -3 0 -474 0 -475 95 0 c95 0 96 0 106 28 14 36 -1
925 -16 927 -5 0 -49 -1 -97 -3z"/>
<path d="M1575 2593 c-53 -12 -125 -47 -153 -76 -37 -38 -62 -103 -62 -162 0
-132 81 -200 271 -225 107 -14 117 -17 129 -41 39 -72 -128 -106 -190 -38 -24
25 -33 27 -120 30 l-95 4 2 -42 c5 -129 120 -208 303 -208 184 1 290 72 306
205 14 123 -45 210 -170 249 -37 11 -87 21 -110 21 -105 0 -154 42 -106 90 15
15 33 20 75 20 46 0 59 -4 89 -30 34 -30 37 -31 123 -28 l88 3 -3 30 c-4 40
-44 106 -82 139 -58 48 -208 78 -295 59z"/>
<path d="M5585 2590 c-167 -23 -280 -150 -292 -329 -16 -227 115 -398 318
-417 75 -7 154 13 184 46 26 28 45 25 52 -10 l6 -30 82 0 c46 0 90 3 99 6 14
5 16 47 16 359 0 195 -3 356 -8 358 -4 3 -47 7 -96 8 l-90 3 -9 -29 c-13 -41
-14 -41 -40 -18 -46 43 -136 64 -222 53z m163 -201 c66 -32 97 -86 97 -169 0
-56 -4 -73 -27 -106 -39 -56 -82 -78 -148 -79 -107 0 -174 73 -174 190 0 146
123 226 252 164z"/>
<path d="M6385 2586 c-139 -35 -216 -155 -185 -287 23 -95 108 -149 265 -169
97 -13 135 -29 135 -60 0 -62 -151 -75 -197 -16 -17 21 -29 24 -117 28 -110 6
-114 4 -97 -59 15 -56 63 -117 113 -147 117 -68 337 -52 436 33 36 31 62 99
62 164 0 80 -33 142 -97 183 -64 41 -71 43 -181 54 -102 11 -122 20 -122 55 0
37 30 55 94 55 51 0 61 -3 86 -30 27 -29 31 -30 113 -30 47 0 88 4 91 9 10 15
-21 100 -49 136 -60 80 -213 115 -350 81z"/>
<path d="M2299 2567 c-84 -31 -119 -57 -167 -126 -76 -110 -89 -273 -30 -397
65 -139 244 -225 406 -195 107 20 195 73 253 155 46 63 43 66 -73 66 -86 0
-108 -3 -137 -21 -44 -26 -118 -35 -166 -19 -43 14 -109 74 -102 93 3 9 72 13
271 15 l268 2 -4 93 c-3 80 -7 101 -36 159 -38 77 -91 128 -172 166 -81 38
-219 42 -311 9z m214 -162 c33 -14 87 -67 87 -85 0 -20 -42 -26 -165 -24 -71
1 -133 3 -137 3 -11 2 4 44 24 71 38 48 122 64 191 35z"/>
<path d="M3014 2582 c-13 -2 -24 -12 -26 -25 -8 -41 2 -691 10 -699 5 -5 51
-7 103 -6 l94 3 5 230 c4 166 9 237 18 253 8 13 34 33 58 43 59 26 111 14 139
-33 18 -30 21 -57 25 -263 l5 -230 95 0 95 0 5 230 c3 127 9 238 13 247 24 48
119 78 170 53 57 -27 61 -45 67 -300 l5 -230 95 0 95 0 3 230 c3 252 -4 312
-47 391 -69 127 -253 154 -396 59 l-49 -34 -42 39 c-48 44 -85 54 -177 48 -60
-3 -143 -35 -158 -60 -11 -17 -29 1 -29 28 0 13 -3 25 -7 25 -17 3 -149 4
-169 1z"/>
<path d="M4268 2584 c-5 -4 -8 -171 -8 -371 l0 -363 100 0 c73 0 100 3 100 13
3 141 -2 712 -6 716 -9 9 -178 14 -186 5z"/>
<path d="M1653 1479 c-29 -3 -72 -18 -96 -32 -121 -71 -156 -185 -101 -323
l25 -64 -44 -44 c-24 -25 -54 -66 -67 -93 -19 -41 -22 -59 -17 -133 7 -125 50
-190 161 -247 97 -49 271 -38 350 22 18 14 37 25 42 25 6 0 25 -16 44 -35 l34
-35 93 0 93 0 0 57 c0 59 -10 79 -87 166 -18 20 -33 41 -33 47 0 5 14 25 30
43 17 19 30 41 30 50 0 13 -141 117 -159 117 -5 0 -16 -9 -26 -20 -22 -25 -37
-25 -58 -2 -26 28 -21 48 22 88 51 47 74 103 74 181 -1 153 -139 256 -310 232z
m85 -181 c13 -13 16 -87 4 -103 -19 -26 -51 -45 -66 -39 -40 15 -60 108 -30
138 18 19 75 21 92 4z m-35 -457 c37 -38 67 -73 67 -78 0 -24 -43 -47 -95 -51
-50 -4 -57 -2 -85 26 -43 43 -40 100 8 155 8 9 20 17 27 17 6 0 42 -31 78 -69z"/>
<path d="M4159 1464 c-11 -14 -12 -913 0 -932 6 -9 33 -12 102 -10 l94 3 3
455 c2 355 -1 460 -10 472 -16 20 -174 30 -189 12z"/>
<path d="M2857 1399 c-37 -4 -74 -13 -82 -19 -8 -7 -15 -35 -17 -68 l-3 -57
-38 -6 c-48 -8 -49 -10 -53 -66 -4 -84 3 -100 48 -106 22 -3 41 -7 43 -9 2 -2
5 -89 7 -194 4 -190 4 -192 33 -249 24 -46 39 -63 78 -83 52 -27 156 -40 221
-28 l36 7 0 78 0 79 -65 4 c-36 2 -70 9 -76 15 -19 19 -28 91 -29 221 0 156 4
164 78 162 31 -1 63 -1 70 -1 8 1 12 24 12 80 l0 79 -70 7 c-39 4 -73 11 -76
17 -3 5 -8 37 -11 71 -4 54 -16 80 -33 76 -3 -1 -36 -5 -73 -10z"/>
<path d="M6333 1385 c-18 -12 -23 -27 -25 -73 l-3 -57 -40 -10 c-22 -5 -43
-14 -47 -20 -4 -5 -8 -40 -8 -77 0 -64 1 -68 23 -69 44 -3 68 -6 73 -11 2 -3
6 -90 7 -194 2 -168 5 -194 23 -234 29 -62 68 -97 127 -115 54 -16 183 -20
205 -6 9 5 12 29 10 81 l-3 73 -50 5 c-68 5 -101 24 -109 63 -11 58 -7 314 6
327 7 7 40 12 80 12 l68 0 0 68 c0 40 -5 73 -12 80 -7 7 -31 12 -54 12 -24 0
-54 4 -68 10 -23 8 -25 15 -28 77 l-3 68 -75 3 c-55 2 -81 -1 -97 -13z"/>
<path d="M7097 1269 c-82 -16 -155 -55 -212 -114 -74 -76 -99 -154 -93 -294 3
-87 7 -105 37 -165 100 -197 390 -259 585 -125 50 34 114 127 136 198 44 139
9 293 -89 391 -58 58 -115 89 -196 106 -68 15 -100 16 -168 3z m135 -189 c85
-24 131 -91 132 -190 1 -87 -30 -145 -94 -177 -82 -42 -174 -26 -239 41 -32
33 -35 41 -38 113 -6 93 10 139 61 178 56 43 110 53 178 35z"/>
<path d="M7890 1260 c-60 -13 -128 -57 -167 -108 -31 -40 -33 -49 -33 -118 0
-82 12 -114 57 -155 52 -49 121 -72 252 -83 71 -7 91 -18 91 -51 0 -67 -142
-82 -195 -20 -18 21 -30 24 -115 27 -94 3 -95 3 -98 -22 -11 -72 65 -169 161
-204 77 -28 224 -27 297 2 102 41 141 93 148 197 10 156 -74 234 -271 255 -92
9 -127 26 -127 60 0 66 153 73 198 8 11 -15 27 -18 91 -18 97 0 108 9 90 72
-15 53 -55 97 -118 132 -55 29 -183 42 -261 26z"/>
<path d="M3463 1239 c-77 -30 -157 -107 -184 -177 -31 -81 -37 -221 -14 -293
10 -30 25 -65 33 -79 27 -44 106 -121 145 -141 92 -48 232 -45 310 7 40 26 52
24 59 -11 3 -18 11 -20 98 -20 l95 0 3 359 c1 208 -2 362 -7 365 -5 3 -50 5
-100 3 -88 -3 -91 -4 -91 -27 0 -37 -14 -37 -76 0 -54 32 -64 35 -138 34 -56
0 -97 -6 -133 -20z m244 -178 c28 -13 49 -33 68 -64 54 -92 42 -181 -31 -246
-64 -56 -128 -65 -200 -30 -91 44 -123 194 -62 286 47 71 139 93 225 54z"/>
<path d="M4730 1240 c-108 -40 -180 -111 -220 -217 -18 -48 -21 -74 -18 -153
3 -84 7 -102 36 -158 58 -113 151 -174 298 -197 49 -8 148 9 207 34 52 23 121
80 153 126 41 61 37 65 -75 65 -87 0 -106 -3 -147 -25 -59 -31 -122 -33 -182
-4 -42 21 -87 74 -76 91 3 4 122 8 264 8 178 0 261 3 266 11 14 23 3 160 -17
214 -28 76 -96 148 -177 187 -58 28 -79 32 -162 35 -76 3 -106 -1 -150 -17z
m215 -169 c40 -18 87 -82 72 -97 -9 -10 -250 -18 -282 -10 -46 12 -23 63 46
105 43 26 110 27 164 2z"/>
<path d="M5460 1250 l-65 -5 0 -360 0 -360 105 0 105 0 3 224 c3 246 6 261 64
303 47 33 126 32 162 -1 14 -14 30 -41 36 -60 5 -20 10 -134 10 -254 l0 -218
103 3 102 3 3 205 c4 254 -8 349 -51 422 -46 76 -111 108 -218 108 -83 0 -130
-13 -176 -50 -34 -26 -39 -25 -46 9 -7 34 -31 39 -137 31z"/>
<path d="M290 875 l0 -355 355 0 355 0 0 355 0 355 -355 0 -355 0 0 -355z"/>
</g>
</svg>
